<svg id="Layer_1" data-name="Layer 1" xmlns="http://www.w3.org/2000/svg" viewBox="0 0 512 512"><title>location-flat</title><path d="M.37,256C.37,114.82,114.82.35,256,.35S511.64,114.83,511.63,256,397.18,511.65,256,511.65.35,397.18.37,256Z" fill="#2b77c1"/><path d="M383,340C383,368,319,382.87,256,382.87S129,368,129,340c0-23.9,41-34.9,66-38.89L198,317c-40,7-53.07,18-53.07,22.95,0,8.92,43,26.94,111.08,26.94,69,0,111-18,111-26.94,0-4.93-11-15.93-52-22.95l2-15.94q66.1,12,66.06,38.89Zm-127,8.92h0s-64.07-99.77-64.07-155.71c0-35.06,29-64.07,64.07-64.07s64,29,64,64.07c0,54.83-64,155.71-64,155.71Zm0-133.72h0c12,0,21-10,21-22a21,21,0,0,0-42.07,0c0,12,9,22,21,22Z" fill="#fff"/></svg>