<svg xmlns="http://www.w3.org/2000/svg" version="1.1" xmlns:xlink="http://www.w3.org/1999/xlink" viewBox="0 0 12.107370884613923 2.5422667261962886"><g transform="matrix(1,0,0,1,2.372916392434277,0.6379833630981443)"><g clip-path="url(#SvgjsClipPath1001)"><g clip-path="url(#SvgjsClipPath1000c7d17da0-2473-4629-9e57-18ef3934a3ec)"><path d=" M -0.2893559544832911 -0.036103163134201144 C -0.3686342643899658 -0.036103163134201144 -0.4330391111046108 -0.10050800984884585 -0.4330391111046108 -0.1797863197555211 L -0.4330391111046108 -0.2041422742388108 L -1.7708254704416397 -0.2041422742388108 L -1.7708254704416397 -0.1797863197555211 C -1.7708254704416397 -0.10050800984884585 -1.8352303171562845 -0.036103163134201144 -1.9145086270629597 -0.036103163134201144 L -1.9388645815462493 -0.036103163134201144 L -1.9388645815462493 1.3016831962028281 L -1.9145086270629597 1.3016831962028281 C -1.8352303171562843 1.3016831962028281 -1.7708254704416397 1.3660880429174727 -1.7708254704416397 1.4453663528241483 L -1.7708254704416397 1.469722307307438 L -0.4330391111046108 1.469722307307438 L -0.4330391111046108 1.4453663528241483 C -0.4330391111046108 1.366088042917473 -0.3686342643899665 1.3016831962028281 -0.2893559544832911 1.3016831962028281 L -0.26500000000000123 1.3016831962028281 L -0.26500000000000123 -0.036103163134201144 L -0.2893559544832911 -0.036103163134201144 Z M -0.31371190896658074 1.254504875333971 C -0.4004298771641137 1.2655092479435803 -0.46921891275354466 1.334298283533011 -0.4802232853631536 1.4210162517305445 L -1.7236471495727823 1.4210162517305445 C -1.7346515221823915 1.334298283533011 -1.8034405577718222 1.2655151013332664 -1.8901585259693556 1.254504875333971 L -1.8901585259693556 0.011081011124342038 C -1.8034405577718222 0.00007663851473271865 -1.7346515221823915 -0.06871239707469798 -1.7236471495727823 -0.15543036527223142 L -0.4802232853631536 -0.15543036527223142 C -0.46921891275354466 -0.06871239707469798 -0.40043573055380044 0.0000707851250466851 -0.31371190896658074 0.011081011124342038 L -0.31371190896658074 1.254504875333971 Z" fill="#3361e1" transform="matrix(1,0,0,1,0,0)" fill-rule="nonzero"></path></g><g clip-path="url(#SvgjsClipPath1000c7d17da0-2473-4629-9e57-18ef3934a3ec)"><path d=" M -0.5806967193226988 0.19776902176842814 C -0.5865032818911742 0.17636902907654933 -0.59435267746005 0.15486952876000942 -0.6021962196392392 0.13346953606813078 C -0.6540631056465525 0.005684185833884664 -0.7534243955657649 -0.09826030820943625 -0.878663521286617 -0.15542451188254547 C -0.9463287060563429 -0.18640065010065865 -1.0216325643662498 -0.2037266835711075 -1.1010162352872723 -0.2037266835711075 C -1.180399906208295 -0.2037266835711075 -1.2560081407818715 -0.18640065010065865 -1.3239835552049533 -0.15542451188254547 C -1.449831433453146 -0.09825445481975037 -1.5501058521633682 0.005684185833884664 -1.6019785915603673 0.1334695360681306 C -1.6097226261148958 0.15486952876000926 -1.6175720216837712 0.17636902907654933 -1.623378584252246 0.19776902176842798 C -1.635097070403543 0.2406685147768467 -1.6409094863617035 0.28744295175737256 -1.6409094863617035 0.3342173887378983 C -1.6409094863617035 0.44335383943266793 -1.6077910075185282 0.5465842199343015 -1.5512355563727591 0.6323890593408247 C -1.5415540498321774 0.616795629217421 -1.5298355636808805 0.6031455244697564 -1.5200545495156372 0.589489566332406 C -1.566828986496163 0.5154032130771793 -1.5922034307848103 0.4277662626989499 -1.5922034307848103 0.33422324212758425 C -1.5922034307848103 0.27766779098181515 -1.582422416619567 0.22314931944676114 -1.5648915145101094 0.17240043086946671 C -1.5571474799555811 0.15100043817758807 -1.5493039377763913 0.13153791747176297 -1.5396224312358096 0.11401286875199146 C -1.4576925358013935 -0.045872470520072456 -1.2921001415855162 -0.1550147746045281 -1.1010337954563303 -0.1550147746045281 C -0.9120044289378595 -0.1550147746045281 -0.746412034721982 -0.04587832390975849 -0.6645816469122274 0.11197003575159059 C -0.6548006327469842 0.13153791747176297 -0.6469512371781083 0.15100043817758818 -0.6392072026235804 0.17240043086946671 C -0.6216763005141228 0.22314931944676114 -0.6118952863488796 0.27766779098181515 -0.6118952863488796 0.33422324212758425 C -0.6118952863488796 0.4277721160886361 -0.6372697306375266 0.5154090664668657 -0.6840441676180526 0.5894895663324063 C -0.6742631534528094 0.6031455244697568 -0.6625446673015127 0.6168014826071071 -0.6528631607609308 0.632389059340825 C -0.5963077096151619 0.5465842199343018 -0.5631892307719863 0.4433596928223542 -0.5631892307719863 0.3342173887378984 C -0.5631892307719863 0.2874429517573727 -0.568995793340461 0.2406685147768468 -0.580720132881444 0.19776902176842814 Z" fill="#000000" transform="matrix(1,0,0,1,0,0)" fill-rule="nonzero"></path></g><g clip-path="url(#SvgjsClipPath1000c7d17da0-2473-4629-9e57-18ef3934a3ec)"><path d=" M -0.6528456005918719 0.632383205951139 C -0.6625271071324537 0.6479766360745429 -0.6742455932837506 0.6616267408222075 -0.6840266074489938 0.675282698959558 C -0.7350798722899581 0.7366262228684439 -0.7967336258522004 0.7861517530013723 -0.8687771461070262 0.8210028351915928 C -0.8716336002737757 0.8223257012606202 -0.8744842010508396 0.8237539283439952 -0.8773348018279032 0.8249772867883614 C -0.8778440467305819 0.8252816630520314 -0.8783532916332604 0.8254865316910398 -0.8788625365359395 0.8256914003300486 C -0.8858924575487805 0.8289517383851297 -0.89312724720063 0.8321125688155495 -0.9003620368524796 0.8350685306069607 C -0.901380526657837 0.8354782678849781 -0.9025043774775416 0.8358821517733097 -0.9035228672828994 0.8362918890513267 C -0.9151359924198488 0.8408750931754354 -0.9273695768635104 0.8454641506892302 -0.9403114214591736 0.8494386022859985 C -0.9415347799035396 0.8498483395640157 -0.9427581383479059 0.8502522234523473 -0.943981496792272 0.8505565997160174 C -0.9507070415414427 0.8527984479657409 -0.9576374549296226 0.8547359199517945 -0.9646673759424633 0.8564685232988394 C -0.9651766208451418 0.8565680309235006 -0.9656858657478204 0.8566733919378482 -0.9662946182751608 0.8568782605768568 C -0.971082691038278 0.858201126645884 -0.9759761248157427 0.8594244850902504 -0.9808695585932075 0.860548335909955 C -1.0191858474775175 0.8695157289088495 -1.0601478684998824 0.873999425408297 -1.1010162352872723 0.873999425408297 C -1.1381091657272164 0.873999425408297 -1.1728548869030895 0.8706395797285542 -1.2070972165659697 0.8638086739650364 C -1.2108667995237292 0.8574928664938826 -1.2143320062178191 0.8512765666473905 -1.2174928366482392 0.8451597744255599 L -1.2183064578145877 0.8437315473421851 C -1.2247276263000886 0.8330315509962456 -1.2303351736192405 0.8209033275669315 -1.2355271302706892 0.8061293719995624 C -1.1927271448869319 0.8188663479562166 -1.146871690087102 0.8252875164417175 -1.1010162352872723 0.8252875164417175 C -1.044560291766165 0.8252875164417175 -0.9899423126064492 0.8155065022764743 -0.9392929316538161 0.7960439815706488 C -0.9232956176420808 0.791659792695863 -0.9082114324213555 0.7861576063910585 -0.8935369844786476 0.7788233091145472 L -0.8934374768539863 0.7787238014898858 C -0.8885440430765217 0.7762770846011535 -0.8836564626887431 0.7736313524630986 -0.8788625365359397 0.770774898296349 C -0.8687712927173405 0.7655770882552142 -0.8587854099130887 0.7600749019504095 -0.849103903372507 0.7541629783675876 C -0.7970321487261849 0.7226775952467959 -0.7509718252873467 0.6817097208347443 -0.7132642889303766 0.632389059340825 C -0.7510713329120078 0.5829630368325582 -0.797336524989855 0.540473281102157 -0.8507311457052045 0.5086776683280089 C -0.8527681253159194 0.5001200126071319 -0.8548051049266345 0.49227061703825625 -0.8571523141907051 0.4848309587473979 C -0.8607170285094563 0.47147937687371766 -0.8644866114672161 0.4576244034870446 -0.869479552869342 0.4438689377250328 C -0.7975355402391777 0.4778010377345572 -0.734863296871578 0.5284504186871899 -0.6840149006696221 0.5894895663324063 C -0.6742338865043789 0.6031455244697568 -0.6625154003530822 0.6168014826071071 -0.6528338938125002 0.632389059340825 Z" fill="#3361e1" transform="matrix(1,0,0,1,0,0)" fill-rule="nonzero"></path></g><g clip-path="url(#SvgjsClipPath1000c7d17da0-2473-4629-9e57-18ef3934a3ec)"><path d=" M -0.6528456005918719 0.632383205951139 C -0.6625271071324537 0.6479766360745429 -0.6742455932837506 0.6616267408222075 -0.6840266074489938 0.675282698959558 C -0.6372521704684682 0.7492636912004371 -0.6118777261798207 0.8370060025930139 -0.6118777261798207 0.9305490231643796 C -0.6118777261798207 0.9890419462962023 -0.621658740345064 1.0435604178312565 -0.641121261050889 1.0942039453942034 C -0.6469278236193639 1.1157034457107435 -0.6567146911742929 1.1351659664165685 -0.666495705339536 1.1546343405120798 C -0.7449603940798624 1.3059620240632666 -0.8985299258807731 1.4124527426199813 -1.0775734095949918 1.4210103983408582 C -1.0853174441495201 1.4214201356188756 -1.0931668397183958 1.4216191508681983 -1.1010103818975856 1.4216191508681983 C -1.1089592850911225 1.4216191508681983 -1.1169081882846597 1.4214142822291893 -1.1247517304638492 1.4210103983408582 C -1.3057326861641214 1.4124527426199813 -1.4611343289367387 1.305862516438605 -1.5395990176770649 1.1526968685260262 C -1.5492805242176466 1.1332343478202012 -1.5571240663968364 1.113771827114376 -1.5629364823549972 1.0942039453942034 C -1.582399003060822 1.0435604178312565 -1.5921800172260654 0.9890419462962023 -1.5921800172260654 0.9305490231643796 C -1.5921800172260654 0.8370001492033279 -1.5668055729374182 0.7492636912004369 -1.5200311359568923 0.6752826989595576 C -1.5298121501221358 0.6616267408222072 -1.5415306362734325 0.6479707826848569 -1.5512121428140144 0.632383205951139 C -1.6077675939597835 0.718082684343315 -1.6408860728029588 0.8214125724696097 -1.6408860728029588 0.9305548765540654 C -1.6408860728029588 0.979266785520645 -1.6350795102344842 1.0260412225011708 -1.6214235520971338 1.070878187495643 C -1.6175544615147126 1.0922781801875217 -1.609705065945837 1.1137776805040618 -1.6019610313913089 1.1332402012098868 C -1.5503985216476657 1.2601124226531226 -1.4511425927428008 1.3634423107794176 -1.3265180729389745 1.421016251730544 C -1.265683793932767 1.4491417891715936 -1.1988322303293897 1.4661575929886865 -1.128415952407262 1.4697281606971233 C -1.11934319839402 1.4702374055998022 -1.110176790145803 1.470442274238811 -1.1010045285078998 1.470442274238811 C -1.091937627884344 1.470442274238811 -1.0828648738711022 1.4702374055998022 -1.073897480872208 1.4697281606971233 C -1.0040958088671057 1.4661634463783726 -0.9375486215273992 1.4491417891715936 -0.8770187187848615 1.421016251730544 C -0.7529034438837137 1.3634423107794174 -0.653647514978849 1.2601124226531226 -0.6021845128598673 1.1332402012098868 C -0.5943351172909916 1.1137776805040618 -0.586491575111802 1.0922781801875217 -0.582622484529381 1.070878187495643 C -0.5689665263920305 1.0260412225011708 -0.5631599638235558 0.979266785520645 -0.5631599638235558 0.9305548765540654 C -0.5631599638235558 0.8214184258592958 -0.5962784426667314 0.7180885377330007 -0.6528338938125002 0.632383205951139 Z" fill="#000000" transform="matrix(1,0,0,1,0,0)" fill-rule="nonzero"></path></g><g clip-path="url(#SvgjsClipPath1000c7d17da0-2473-4629-9e57-18ef3934a3ec)"><path d=" M -0.31371190896658074 0.40901200214512645 C -0.3709814736540371 0.28428212132695296 -0.47472109905834925 0.18513155343643523 -0.602202073028925 0.13346368267844466 C -0.62166459373475 0.12561428710956907 -0.6430645864266287 0.11787025255504074 -0.6645699401328549 0.11196418236190464 C -0.7093015441129797 0.10034520383526924 -0.7560818344831917 0.09443913364213313 -0.8047878900600847 0.09443913364213313 C -0.9139243407548543 0.09443913364213313 -1.0172542288811495 0.1275576124853086 -1.1010220886769577 0.1841130636310777 C -1.0854286585535537 0.19583154978237455 -1.0718780614305508 0.2055130563229564 -1.0601595752792539 0.2152940704881996 C -0.9860732220240275 0.17045710549372733 -0.8983367640211362 0.14314518921902664 -0.8047878900600847 0.14314518921902664 C -0.7463944745529234 0.14314518921902664 -0.691776495393208 0.15292620338426988 -0.6391954958442072 0.17238872409009498 C -0.6197329751383822 0.1783006476729171 -0.6001650934182097 0.1879821542134988 -0.5807025727123845 0.19776316837874203 C -0.422854213051036 0.27765608420244337 -0.3137177623562657 0.4414163674466145 -0.3137177623562657 0.632383205951139 C -0.3137177623562657 0.8233500444556636 -0.4228542130510353 0.9890477996858884 -0.5826400446984381 1.0708723341059574 C -0.6022020730289244 1.0806533482712004 -0.6216704471244354 1.088397382825729 -0.6411329678302606 1.0942097987838895 C -0.6917764953932075 1.113777680504062 -0.7483377999286627 1.123453333654958 -0.8047878900600844 1.123453333654958 C -0.8983367640211362 1.123453333654958 -0.9860732220240271 1.096141417380257 -1.0601595752792536 1.0514098134001322 C -1.0718780614305503 1.0610913199407142 -1.0854286585535533 1.0708723341059574 -1.1010220886769573 1.082590820257254 C -1.017254228881149 1.139046763778362 -0.9139301941445399 1.1721652426215372 -0.8047878900600844 1.1721652426215372 C -0.7560759810935049 1.1721652426215372 -0.7112390160990327 1.1663586800530623 -0.6665015587292218 1.1546401939017656 C -0.6450020584126817 1.148833631333291 -0.623602065720803 1.140984235764415 -0.6022020730289244 1.1332402012098868 C -0.4747210990583486 1.0815723304518963 -0.370981473654036 0.9816081413950297 -0.31371190896657963 0.8562695080495164 C -0.2824255410951102 0.7879955707524504 -0.2650000000000001 0.7120771065255176 -0.2650000000000001 0.632389059340825 C -0.2650000000000001 0.5527010121561325 -0.2824255410951102 0.4769874165682082 -0.31371190896657963 0.4090178555348124 Z" fill="#000000" transform="matrix(1,0,0,1,0,0)" fill-rule="nonzero"></path></g><g clip-path="url(#SvgjsClipPath1000c7d17da0-2473-4629-9e57-18ef3934a3ec)"><path d=" M -1.3230645730242574 0.4919603873849002 C -1.3231640806489184 0.4919603873849002 -1.3231640806489184 0.4920598950095616 -1.3232694416632658 0.4921652560239087 L -1.3232694416632658 0.4920657483992473 C -1.3232694416632658 0.4920657483992473 -1.3231699340386047 0.49196624077458595 -1.3230645730242574 0.49196624077458595 Z" fill="#3361e1" transform="matrix(1,0,0,1,0,0)" fill-rule="nonzero"></path></g><g clip-path="url(#SvgjsClipPath1000c7d17da0-2473-4629-9e57-18ef3934a3ec)"><path d=" M -0.9151418458095348 0.8674787492981344 C -0.9499929279997554 0.9379945348449237 -0.9991087208546662 1.000567270587862 -1.0601537218895682 1.051415666789818 C -1.0718722080408651 1.0610971733303998 -1.0854228051638681 1.070878187495643 -1.101016235287272 1.08259667364694 C -1.11660381202099 1.0728156594816967 -1.1302597701583403 1.0610971733303998 -1.1439157282956907 1.051415666789818 C -1.1994526896361024 1.0051504747119708 -1.2451091291866094 0.9492037760935421 -1.279140736820795 0.8863325174766195 C -1.2800597190014908 0.8845999141295746 -1.2810782088068486 0.8827678031578681 -1.2819913375978587 0.8809298387964759 C -1.2899402407913958 0.8660505222147594 -1.2971750304432452 0.8506619607303643 -1.3036957065534076 0.8350743839966461 C -1.3049190649977738 0.8318140459415653 -1.3060370624277922 0.8285537078864842 -1.3072604208721588 0.8252933698314033 C -1.30735992849682 0.8250885011923945 -1.3074652895111676 0.8248836325533859 -1.3074652895111676 0.824684617304063 C -1.3117441173716058 0.812860770138419 -1.3160287986217305 0.8010427763624606 -1.3195935129404817 0.7892189291968164 C -1.319693020565143 0.789119421572155 -1.319693020565143 0.7889145529331465 -1.3197983815794905 0.7887096842941379 C -1.321735853565544 0.7826982530866544 -1.3235679645372502 0.7767863295038323 -1.325201060259634 0.770774898296349 C -1.3263190576896524 0.7664960704359104 -1.3274429085093575 0.7622172425754719 -1.3283618906900534 0.7579384147150331 L -1.3292808728707497 0.7539639631182649 C -1.3382482658696437 0.714629184428597 -1.3427319623690912 0.6749900294752597 -1.3427319623690912 0.6323949127305108 C -1.3427319623690912 0.5955068509295757 -1.3393721166893489 0.559736786558659 -1.3318270973841433 0.5251900806321089 C -1.3264244187039997 0.522029250201689 -1.3210275934135423 0.5190732884102782 -1.3157244223580609 0.5163221952578757 L -1.3150103088163734 0.5160178189942058 L -1.3142961952746857 0.5155085740915271 C -1.3030869540260677 0.5087830293423563 -1.2901451094304048 0.5029764667738816 -1.2743468106679923 0.4975737880937382 C -1.2874935239026637 0.5411873946438442 -1.294014200012826 0.586129720652664 -1.294014200012826 0.6323949127305112 C -1.294014200012826 0.687422629168244 -1.2847365773605754 0.7426552142449855 -1.2661930388354468 0.7922802520025752 C -1.2656837939327679 0.7936031180716027 -1.265274056654751 0.7948264765159689 -1.2647648117520718 0.7960498349603349 C -1.2640506982103843 0.7984965518490672 -1.2633365846686966 0.8009432687377995 -1.2626224711270098 0.8033841322368458 C -1.2617034889463135 0.8062405864035955 -1.2606849991409557 0.8091906948053205 -1.2596665093355985 0.8120471489720702 C -1.2539594543917851 0.8274357104564654 -1.2467246647399355 0.8419052897601647 -1.2393903674634246 0.8564743766885252 C -1.2373533878527097 0.8604488282852938 -1.2352110472276476 0.8644232798820621 -1.233074559992271 0.8683977314788307 C -1.2319565625622526 0.870540072103893 -1.2307332041178864 0.8725770517146079 -1.2295098456735203 0.8746140313253228 C -1.1972049879966935 0.9314738587347622 -1.1538957577102573 0.9816139947847162 -1.101010381897587 1.0221721319187498 C -1.0534223237507123 0.9843650879371184 -1.0127588256023312 0.93830476449828 -0.9812734424815392 0.8861335022272969 C -0.9709831834136173 0.8837921463529117 -0.9616060531367053 0.8814449370888411 -0.9528435287768197 0.8786938439364389 C -0.9406157977228441 0.8754335058813576 -0.9278788217661897 0.8719682991872677 -0.9151359924198494 0.8674846026878207 Z" fill="#3361e1" transform="matrix(1,0,0,1,0,0)" fill-rule="nonzero"></path></g><g clip-path="url(#SvgjsClipPath1000c7d17da0-2473-4629-9e57-18ef3934a3ec)"><path d=" M -0.9035287206725853 0.8362918890513267 C -0.9153467144485434 0.84169456773147 -0.9276798065168661 0.8457685269528996 -0.9403172748488594 0.8494386022859983 C -0.9273754302531962 0.8454641506892298 -0.9151476991992207 0.8408809465651215 -0.9035287206725853 0.8362918890513267 Z" fill="#3361e1" transform="matrix(1,0,0,1,0,0)" fill-rule="nonzero"></path></g><g clip-path="url(#SvgjsClipPath1000c7d17da0-2473-4629-9e57-18ef3934a3ec)"><path d=" M -1.3992874135148596 1.1234591870446435 C -1.4576808290220211 1.1234591870446435 -1.5122988081817366 1.1137776805040618 -1.5629423357446834 1.0942156521735753 C -1.5824048564505087 1.0884090896051006 -1.6019727381706812 1.0806650550505723 -1.621435258876506 1.070878187495643 C -1.7778553914544801 0.9907804030329328 -1.8857743370945697 0.830286311233529 -1.8901585259693556 0.6443124141311304 C -1.8903633946083642 0.6403379625343618 -1.8903633946083642 0.6363635109375932 -1.8903633946083642 0.6323890593408247 C -1.8903633946083642 0.6284146077440564 -1.8903633946083642 0.624440156147288 -1.8901585259693556 0.6204657045505194 C -1.8857743370945697 0.43459131507278226 -1.7779607524688275 0.2760346952594315 -1.6233727308625596 0.1977690217684278 C -1.6039102101567346 0.18798800760318463 -1.584348181826248 0.17830650106260276 -1.564879807730737 0.17239457747978076 C -1.5142362801677902 0.15293205677395566 -1.4576808290220211 0.14315104260871248 -1.3992874135148596 0.14315104260871248 C -1.3057385395538081 0.14315104260871248 -1.2180020815509172 0.16852548689735952 -1.1439157282956907 0.21529992387788544 C -1.1302597701583401 0.2055189097126422 -1.1166038120209896 0.19389993118600674 -1.1010162352872719 0.18411891702076355 C -1.186821074693795 0.1275634658749944 -1.2881081298196893 0.09444498703181903 -1.3992874135148596 0.09444498703181903 C -1.447999322481439 0.09444498703181903 -1.4947737594619648 0.10035691061464108 -1.5396107244564372 0.11401286875199146 C -1.5610107171483159 0.11788195933441264 -1.5824107098401945 0.12563184727862692 -1.6019785915603668 0.13347538945781656 C -1.7291551892672727 0.18514326021580696 -1.8327894536572376 0.2848030730090036 -1.8901643793590415 0.4094275928128298 C -1.919718143883466 0.4735222098741184 -1.9369388163395673 0.5442428640599166 -1.938870434935935 0.6184287249398047 C -1.9389699425605962 0.6230119290639131 -1.9390753035749435 0.6277004942023692 -1.9390753035749435 0.632389059340825 C -1.9390753035749435 0.6370776244792808 -1.9389757959502822 0.641766189617737 -1.938870434935935 0.6464489013665067 C -1.9369329629498815 0.7212435147737346 -1.9197122904937798 0.7923739062375502 -1.8901643793590415 0.8567787529521951 C -1.8327894536572378 0.9819183710483861 -1.7291551892672727 1.0815781838415828 -1.6019785915603668 1.1332402012098868 C -1.5824107098401945 1.140984235764415 -1.5610107171483159 1.148833631333291 -1.5396107244564372 1.152702721915712 C -1.4947737594619648 1.1663586800530623 -1.447999322481439 1.172165242621537 -1.3992874135148596 1.172165242621537 C -1.288113983209375 1.172165242621537 -1.186821074693795 1.1390467637783612 -1.1010162352872719 1.0825908202572538 C -1.1166038120209896 1.0728098060920106 -1.1302597701583401 1.0610913199407137 -1.1439157282956907 1.051409813400132 C -1.218002081550917 1.0981842503806576 -1.3057385395538081 1.1234533336549575 -1.3992874135148596 1.1234533336549575 Z" fill="#000000" transform="matrix(1,0,0,1,0,0)" fill-rule="nonzero"></path></g><g clip-path="url(#SvgjsClipPath1000c7d17da0-2473-4629-9e57-18ef3934a3ec)"><path d=" M -0.8935428378683332 0.7788233091145472 C -0.9082172858110411 0.7861576063910581 -0.9232956176420806 0.7916656460855487 -0.9392987850435016 0.7960439815706488 L -0.9392987850435016 0.7959444739459876 C -0.9386841791264753 0.7958449663213261 -0.9379759189744743 0.7955347366679701 -0.9373613130574481 0.7953357214186474 C -0.9232956176420801 0.7911564011828703 -0.9082172858110411 0.785859083517074 -0.8935428378683332 0.7788291625042334 Z" fill="#3361e1" transform="matrix(1,0,0,1,0,0)" fill-rule="nonzero"></path></g><g clip-path="url(#SvgjsClipPath1000c7d17da0-2473-4629-9e57-18ef3934a3ec)"><path d=" M -1.3015650727077168 0.42918863639263893 C -1.2883188518483841 0.42297233654614674 -1.2740482877940076 0.41838913242203823 -1.259684069504656 0.41430931981092245 C -1.2742590098227025 0.4189978849493784 -1.2884242128627317 0.4242952026151743 -1.3017699413467256 0.4296978812953177 C -1.3016704337220646 0.42959837367065634 -1.3016704337220646 0.42939350503164764 -1.3015650727077168 0.4292881440173003 L -1.3015650727077168 0.42918863639263893 Z" fill="#3361e1" transform="matrix(1,0,0,1,0,0)" fill-rule="nonzero"></path></g><g clip-path="url(#SvgjsClipPath1000c7d17da0-2473-4629-9e57-18ef3934a3ec)"><path d=" M -0.8613374878161684 0.632383205951139 C -0.8613374878161684 0.6694761363910829 -0.8646973334959107 0.7043272185813032 -0.8715282392594286 0.738669055868845 C -0.8772352942032422 0.7420289015485874 -0.8828369881327083 0.7450902243543459 -0.8883450278271987 0.7479408251314095 L -0.8890591413688862 0.7483505624094269 L -0.8896678938962264 0.7487602996874442 C -0.9008771351448444 0.7553863368119537 -0.9136141111014986 0.7612924070050897 -0.9293070488495638 0.766695085685233 C -0.916464711878562 0.7239946079261371 -0.9100435433930614 0.6781391531263073 -0.9100435433930614 0.6323890593408247 C -0.9100435433930614 0.5758336081950556 -0.9198245575583046 0.5213151366600017 -0.9392929316538158 0.46862877609665377 C -0.9452048552366379 0.4491662553908288 -0.9529488897911662 0.4277662626989499 -0.964667375942463 0.40819838097877736 C -0.9660956030258379 0.4054472878263752 -0.9675238301092124 0.4026961946739728 -0.9690457114275628 0.39994510152157037 C -1.001859814007068 0.33911082251536284 -1.0470011552652103 0.2856108407856661 -1.101010381897586 0.24454345874895356 C -1.1504305510161665 0.2808227680225488 -1.1914979330528792 0.32677773044703995 -1.2230886771880185 0.37895484610770913 C -1.2331799210066179 0.38119669435743275 -1.2422468216301736 0.38353805023181764 -1.2509098383653976 0.38618963575955856 C -1.262833193155703 0.38935046618997826 -1.27516043183434 0.3927103118697207 -1.287493523902663 0.39698913973015926 C -1.25396530778147 0.32657286180803113 -1.204849514926559 0.26440986334311006 -1.1439098749060048 0.21529407048819932 C -1.130253916768654 0.20551305632295597 -1.116597958631304 0.1938940777963205 -1.101010381897586 0.18411306363107743 C -1.085416951774182 0.1958315497823741 -1.071866354651179 0.20551305632295608 -1.0601478684998824 0.21529407048819932 C -1.016229885686106 0.2506543975810983 -0.9784228417044748 0.29294513806217687 -0.9481549636383629 0.34012345893103424 C -0.9451990018469522 0.34470666305514275 -0.942243040055541 0.3493952281935987 -0.9394919469031385 0.3541833009567159 C -0.9372500986534151 0.3579528839144758 -0.9350082504036912 0.36172246687223564 -0.9328659097786292 0.3655974108443425 C -0.9212469312519933 0.3861837823698724 -0.9108571645594103 0.4077827903110738 -0.902293655448847 0.4296920279056312 C -0.8925126412836037 0.4491545486114562 -0.8867002253254432 0.47055454130333485 -0.8807941551323071 0.49205404161987487 C -0.8796703043126024 0.49561875593862603 -0.8786518145072448 0.4992888312717244 -0.8777386857162348 0.5030584142294844 C -0.8771240797992086 0.5052007548545465 -0.8765153272718684 0.50744260310427 -0.8760060823691898 0.5096844513539939 C -0.8743729866468064 0.515596374936816 -0.8729506129531177 0.5216078061442995 -0.8717272545087513 0.5276192373517827 C -0.8644924648569019 0.5614518297366454 -0.8613316344264819 0.5964024195515274 -0.8613316344264819 0.6323773525614526 Z" fill="#3361e1" transform="matrix(1,0,0,1,0,0)" fill-rule="nonzero"></path></g><g clip-path="url(#SvgjsClipPath1000c7d17da0-2473-4629-9e57-18ef3934a3ec)"><path d=" M -1.307471142900853 0.8246787639143771 C -1.3123645766783176 0.8132646540267505 -1.3161341596360774 0.8013412992364448 -1.3195993663301673 0.7892130758071306 C -1.3160346520114161 0.801036922972775 -1.3117558241509775 0.8128549167487331 -1.307471142900853 0.8246787639143771 Z" fill="#3361e1" transform="matrix(1,0,0,1,0,0)" fill-rule="nonzero"></path></g><g clip-path="url(#SvgjsClipPath1000c7d17da0-2473-4629-9e57-18ef3934a3ec)"><path d=" M -0.9686418275392316 0.45864289329240204 C -1.0107276993813015 0.4458064097110864 -1.0552602881121036 0.43938524122558564 -1.101016235287272 0.43938524122558564 C -1.1519699925035751 0.43938524122558564 -1.202917896330192 0.44733414441912267 -1.2494874646717093 0.4631265897918494 C -1.251424936657763 0.46373534231918956 -1.2532570476294693 0.46444945586087694 -1.255194519615523 0.46506406177790294 C -1.2584548576706038 0.4662874202222692 -1.2616156881010236 0.46740541765228805 -1.2647706651417576 0.4686287760966541 C -1.2839288095839128 0.47443533866512877 -1.3029815930117206 0.48198035797033456 -1.3222450984682228 0.4915565034965689 C -1.322344606092884 0.49165601112123025 -1.3225494747318929 0.49176137213557747 -1.3227543433709017 0.49186087976023884 C -1.322853850995563 0.4919603873849002 -1.3229592120099105 0.4919603873849002 -1.3230587196345718 0.4919603873849002 C -1.3231582272592328 0.4919603873849002 -1.3232635882735806 0.4920598950095616 -1.3232635882735806 0.4920598950095616 C -1.3238781941906064 0.49236427127323146 -1.3245923077322939 0.4927740085512491 -1.325201060259634 0.49317789243958043 C -1.3285609059393764 0.49491049578662516 -1.331926605008805 0.4967426067583316 -1.3352923040782334 0.49868007874438514 C -1.3380433972306358 0.50010830582776 -1.3406949827583765 0.5017355481604576 -1.3433407148964316 0.5032632828684935 C -1.3473151664932002 0.5055051311182174 -1.3511901104653075 0.5078464869926022 -1.354959693423067 0.5102932038813345 C -1.3580151628391395 0.5121253148530407 -1.3609711246305505 0.5139632792144329 -1.3639270864219615 0.5159007512004865 C -1.3675971617550604 0.5182421070748716 -1.3711618760738111 0.5206888239636039 -1.3747265903925623 0.5231355408523359 C -1.3798190394193497 0.5266007475464258 -1.3848178342111614 0.530165461865177 -1.3898107756132876 0.5338355371982754 C -1.4280217034832505 0.5616566983756549 -1.4619596568824604 0.5945703085798215 -1.4907993078651973 0.6323773525614531 C -1.4529922638835662 0.681797521680034 -1.406832432820066 0.722765396092085 -1.3546553171593971 0.7542507792128771 C -1.352618337548682 0.7634230408507802 -1.3503764892989585 0.7718811889469958 -1.3479297724102262 0.7799295997651942 C -1.344365058091475 0.7930763129998659 -1.3405896217440292 0.8068317787618777 -1.3357020413562504 0.820487736899228 C -1.4064226955420487 0.7856366547090075 -1.4691944465343099 0.7363159932150882 -1.5200486961259516 0.6752768455698718 C -1.5298297102911946 0.6616208874325215 -1.5415481964424917 0.647964929295171 -1.5512297029830735 0.6323773525614531 C -1.5415481964424917 0.6167839224380491 -1.5298297102911946 0.6031338176903845 -1.5200486961259516 0.5894778595530344 C -1.4687905626459785 0.5278241059907921 -1.4053046981120298 0.4766713335251661 -1.3324417033011695 0.44273923351564204 C -1.3275482695237049 0.4404973852659184 -1.3226606891359263 0.4383550446408562 -1.3177672553584616 0.43621855740547977 L -1.3176677477338004 0.4361190497808184 C -1.3123704300680044 0.43387720153109477 -1.3070731124022081 0.43173486090603264 -1.3017699413467265 0.4296978812953177 C -1.2884183594730458 0.4242952026151743 -1.274259009822703 0.4189978849493784 -1.2596840695046563 0.41430931981092245 C -1.259379693240986 0.41430931981092245 -1.25906946358763 0.4142098121862612 -1.2587650873239604 0.4140049435472525 C -1.2523439188384597 0.41196796393653734 -1.2459227503529586 0.40993098432582253 -1.239402074242797 0.4081983809787778 C -1.2323721532299556 0.4063662700070716 -1.2253422322171148 0.4047331742846879 -1.2183064578145881 0.4032054395766518 C -1.2177972129119095 0.4031059319519904 -1.217393329023578 0.4030005709376431 -1.2169835917455605 0.4029010633129817 C -1.1795862850419465 0.3947472914804361 -1.1416797334356539 0.39067333225900625 -1.1010162352872728 0.39067333225900625 C -1.0659602844580438 0.39067333225900625 -1.0307053183794919 0.39403903132843465 -0.9972766098829603 0.4005597074385967 C -0.9934075193005393 0.4069808759240976 -0.9899423126064495 0.41329668339525083 -0.9866761211616827 0.41961834425609035 L -0.9862722372733511 0.42033245779777795 L -0.9858624999953337 0.42104657133946544 C -0.9795466925241804 0.4316470600607435 -0.9738396375803671 0.44387479111471906 -0.9686418275392321 0.4586487466820882 Z" fill="#3361e1" transform="matrix(1,0,0,1,0,0)" fill-rule="nonzero"></path></g></g><g><path d=" M 0.5027400000000001 1.2852 Q 0.38367 1.2852 0.299565 1.26252 Q 0.21546 1.23984 0.12663000000000002 1.19637 L 0.10773 0.88452 L 0.13797 0.88452 L 0.23814000000000002 1.09053 Q 0.30429 1.14534 0.36855000000000004 1.16991 Q 0.43281000000000003 1.19448 0.49707000000000007 1.19448 Q 0.6066900000000001 1.19448 0.6700050000000001 1.13778 Q 0.7333200000000001 1.08108 0.7333200000000001 0.9827999999999999 Q 0.7333200000000001 0.90531 0.6983550000000001 0.859005 Q 0.66339 0.8127 0.5944050000000001 0.7758449999999999 Q 0.52542 0.7389899999999999 0.42525 0.68985 Q 0.29106000000000004 0.6255899999999999 0.21924000000000002 0.554715 Q 0.14742000000000002 0.48383999999999994 0.14742000000000002 0.35531999999999986 Q 0.14742000000000002 0.28727999999999987 0.18049500000000002 0.22396499999999997 Q 0.21357 0.16064999999999996 0.27027 0.1105649999999998 Q 0.32697000000000004 0.06047999999999987 0.39690000000000003 0.030239999999999823 Q 0.46683 -2.220446049250313e-16 0.5424300000000001 -2.220446049250313e-16 Q 0.63126 -2.220446049250313e-16 0.7087500000000001 0.020789999999999864 Q 0.78624 0.04157999999999995 0.86184 0.08126999999999995 L 0.8807400000000001 0.38366999999999984 L 0.8505 0.38366999999999984 L 0.7522200000000001 0.18143999999999982 Q 0.69174 0.1341899999999998 0.6426000000000001 0.11339999999999995 Q 0.5934600000000001 0.09260999999999986 0.5310900000000001 0.09260999999999986 Q 0.44982000000000005 0.09260999999999986 0.39595500000000006 0.14741999999999988 Q 0.34209000000000006 0.2022299999999999 0.34209000000000006 0.2853899999999999 Q 0.34209000000000006 0.3779999999999999 0.39973500000000006 0.43091999999999986 Q 0.45738000000000006 0.48383999999999994 0.5859000000000001 0.5443199999999999 Q 0.6993 0.5991299999999999 0.7739550000000001 0.6492149999999999 Q 0.8486100000000001 0.6992999999999999 0.8845200000000001 0.76167 Q 0.9204300000000001 0.8240399999999999 0.9204300000000001 0.92043 Q 0.9204300000000001 1.0092599999999998 0.8826300000000001 1.0773 Q 0.8448300000000001 1.14534 0.78246 1.191645 Q 0.7200900000000001 1.2379499999999999 0.647325 1.261575 Q 0.5745600000000001 1.2852 0.5027400000000001 1.2852 M 1.1434795312500001 1.2663 L 1.1434795312500001 1.23606 L 1.2984595312500002 1.16046 L 1.2984595312500002 0.12473999999999985 L 1.1434795312500001 0.04913999999999996 L 1.1434795312500001 0.018899999999999917 L 1.6481095312500003 0.018899999999999917 L 1.6481095312500003 0.04913999999999996 L 1.49501953125 0.12473999999999985 L 1.49501953125 1.16046 L 1.6481095312500003 1.23606 L 1.6481095312500003 1.2663 L 1.1434795312500001 1.2663 M 1.8825064453125 1.2663 L 1.8825064453125 1.23606 L 2.0355964453125 1.16046 L 2.0355964453125 0.12473999999999985 L 1.8825064453125 0.04913999999999996 L 1.8825064453125 0.018899999999999917 L 2.4079264453125 0.018899999999999917 Q 2.6063764453125002 0.018899999999999917 2.7207214453125 0.10111499999999984 Q 2.8350664453125 0.18332999999999977 2.8350664453125 0.32696999999999987 Q 2.8350664453125 0.4328099999999999 2.7632464453125003 0.5140799999999999 Q 2.6914264453125 0.5953499999999999 2.5742464453125002 0.6388199999999999 L 2.9314564453125005 1.1661299999999999 L 3.0580864453125 1.23606 L 3.0580864453125 1.2663 L 2.7537964453125 1.2663 L 2.3909164453125 0.6917399999999999 L 2.2340464453125 0.6917399999999999 L 2.2340464453125 1.1585699999999999 L 2.3757964453125 1.23606 L 2.3757964453125 1.2663 L 1.8825064453125 1.2663 M 2.3455564453125 0.1228499999999999 L 2.2340464453125 0.1228499999999999 L 2.2340464453125 0.5915699999999999 L 2.3568964453125 0.5915699999999999 Q 2.4740764453125 0.5915699999999999 2.5506214453125002 0.5244749999999999 Q 2.6271664453125 0.4573799999999999 2.6271664453125 0.3534299999999999 Q 2.6271664453125 0.2456999999999998 2.5525114453125 0.18427499999999997 Q 2.4778564453125003 0.1228499999999999 2.3455564453125 0.1228499999999999 M 3.6647247656250004 1.27575 L 3.180884765625 0.11717999999999984 L 3.050474765625 0.04913999999999996 L 3.050474765625 0.018899999999999917 L 3.551324765625 0.018899999999999917 L 3.551324765625 0.04913999999999996 L 3.386894765625 0.12095999999999996 L 3.740324765625 0.97146 L 3.7497747656250002 0.97146 L 4.099424765625001 0.11528999999999989 L 3.942554765625 0.04913999999999996 L 3.942554765625 0.018899999999999917 L 4.341344765625 0.018899999999999917 L 4.341344765625 0.04913999999999996 L 4.233614765625 0.10772999999999988 L 3.740324765625 1.27575 L 3.6647247656250004 1.27575 M 4.522731240234376 1.2663 L 4.522731240234376 1.23606 L 4.677711240234376 1.16046 L 4.677711240234376 0.12473999999999985 L 4.522731240234376 0.04913999999999996 L 4.522731240234376 0.018899999999999917 L 5.0273612402343755 0.018899999999999917 L 5.0273612402343755 0.04913999999999996 L 4.874271240234376 0.12473999999999985 L 4.874271240234376 1.16046 L 5.0273612402343755 1.23606 L 5.0273612402343755 1.2663 L 4.522731240234376 1.2663 M 5.821198154296876 1.27575 L 5.337358154296876 0.11717999999999984 L 5.206948154296875 0.04913999999999996 L 5.206948154296875 0.018899999999999917 L 5.707798154296876 0.018899999999999917 L 5.707798154296876 0.04913999999999996 L 5.543368154296876 0.12095999999999996 L 5.896798154296876 0.97146 L 5.906248154296875 0.97146 L 6.255898154296876 0.11528999999999989 L 6.099028154296876 0.04913999999999996 L 6.099028154296876 0.018899999999999917 L 6.497818154296876 0.018899999999999917 L 6.497818154296876 0.04913999999999996 L 6.390088154296876 0.10772999999999988 L 5.896798154296876 1.27575 L 5.821198154296876 1.27575 M 7.261340317382813 1.2852 Q 7.125260317382813 1.2852 7.009025317382814 1.237005 Q 6.892790317382813 1.18881 6.8067953173828135 1.1028149999999999 Q 6.720800317382813 1.01682 6.673550317382813 0.89964 Q 6.626300317382813 0.7824599999999999 6.626300317382813 0.6426 Q 6.626300317382813 0.5027399999999999 6.673550317382813 0.3855599999999999 Q 6.720800317382813 0.26837999999999984 6.8067953173828135 0.1823849999999998 Q 6.892790317382813 0.09638999999999998 7.009025317382814 0.048194999999999766 Q 7.125260317382813 -2.220446049250313e-16 7.261340317382813 -2.220446049250313e-16 Q 7.397420317382814 -2.220446049250313e-16 7.513655317382813 0.048194999999999766 Q 7.629890317382813 0.09638999999999998 7.7158853173828135 0.1823849999999998 Q 7.801880317382814 0.26837999999999984 7.850075317382814 0.3855599999999999 Q 7.8982703173828135 0.5027399999999999 7.8982703173828135 0.6426 Q 7.8982703173828135 0.7824599999999999 7.850075317382814 0.89964 Q 7.801880317382814 1.01682 7.7158853173828135 1.1028149999999999 Q 7.629890317382813 1.18881 7.513655317382813 1.237005 Q 7.397420317382814 1.2852 7.261340317382813 1.2852 M 7.299140317382814 1.1907 Q 7.414430317382814 1.1907 7.501370317382813 1.13022 Q 7.588310317382813 1.06974 7.637450317382814 0.96012 Q 7.686590317382813 0.8504999999999999 7.686590317382813 0.70119 Q 7.686590317382813 0.5178599999999999 7.626110317382814 0.3808349999999999 Q 7.565630317382814 0.24380999999999986 7.461680317382814 0.16820999999999997 Q 7.3577303173828135 0.09260999999999986 7.231100317382813 0.09260999999999986 Q 7.115810317382813 0.09260999999999986 7.026980317382813 0.15214499999999997 Q 6.938150317382814 0.21167999999999987 6.8880653173828135 0.3212999999999999 Q 6.837980317382813 0.43091999999999986 6.837980317382813 0.5802299999999999 Q 6.837980317382813 0.7635599999999999 6.899405317382813 0.9015299999999999 Q 6.960830317382813 1.0394999999999999 7.065725317382814 1.1151 Q 7.170620317382813 1.1907 7.299140317382814 1.1907 M 8.134479711914064 1.2663 L 8.134479711914064 1.23606 L 8.287569711914063 1.16046 L 8.287569711914063 0.12473999999999985 L 8.134479711914064 0.04913999999999996 L 8.134479711914064 0.018899999999999917 L 8.659899711914065 0.018899999999999917 Q 8.858349711914064 0.018899999999999917 8.972694711914064 0.10111499999999984 Q 9.087039711914064 0.18332999999999977 9.087039711914064 0.32696999999999987 Q 9.087039711914064 0.4328099999999999 9.015219711914064 0.5140799999999999 Q 8.943399711914065 0.5953499999999999 8.826219711914064 0.6388199999999999 L 9.183429711914064 1.1661299999999999 L 9.310059711914064 1.23606 L 9.310059711914064 1.2663 L 9.005769711914065 1.2663 L 8.642889711914064 0.6917399999999999 L 8.486019711914064 0.6917399999999999 L 8.486019711914064 1.1585699999999999 L 8.627769711914064 1.23606 L 8.627769711914064 1.2663 L 8.134479711914064 1.2663 M 8.597529711914063 0.1228499999999999 L 8.486019711914064 0.1228499999999999 L 8.486019711914064 0.5915699999999999 L 8.608869711914064 0.5915699999999999 Q 8.726049711914063 0.5915699999999999 8.802594711914065 0.5244749999999999 Q 8.879139711914064 0.4573799999999999 8.879139711914064 0.3534299999999999 Q 8.879139711914064 0.2456999999999998 8.804484711914064 0.18427499999999997 Q 8.729829711914064 0.1228499999999999 8.597529711914063 0.1228499999999999" fill="#000000" fill-rule="nonzero"></path></g><g></g></g><defs><clipPath id="SvgjsClipPath1001"><path d=" M -1.9390753035749437 -0.20414227423881082 h 1.6740753035749436 v 1.6745845484776216 h -1.6740753035749436 Z"></path></clipPath><clipPath id="SvgjsClipPath1000c7d17da0-2473-4629-9e57-18ef3934a3ec"><path d=" M -1.9390753035749435 -0.20414227423881082 L -0.2650000000000001 -0.20414227423881082 L -0.2650000000000001 1.4704422742388108 L -1.9390753035749435 1.4704422742388108 Z"></path></clipPath></defs></svg>