<svg id="Layer_1" data-name="Layer 1" xmlns="http://www.w3.org/2000/svg" xmlns:xlink="http://www.w3.org/1999/xlink" viewBox="0 0 512 512"><defs><pattern id="USGS_8_Sewage_Disposal" data-name="USGS 8 Sewage Disposal" width="72" height="74.8" patternTransform="translate(-330.54 756.16) scale(2.7 2.7)" patternUnits="userSpaceOnUse" viewBox="0 0 72 74.8"><rect width="72" height="74.8" fill="none"/><line y1="73.95" x2="72" y2="73.95" fill="none" stroke="#1f191a" stroke-linecap="square" stroke-width="0.3"/><line y1="72.25" x2="72" y2="72.25" fill="none" stroke="#1f191a" stroke-linecap="square" stroke-width="0.3"/><line y1="70.55" x2="72" y2="70.55" fill="none" stroke="#1f191a" stroke-linecap="square" stroke-width="0.3"/><line y1="68.85" x2="72" y2="68.85" fill="none" stroke="#1f191a" stroke-linecap="square" stroke-width="0.3"/><line y1="67.15" x2="72" y2="67.15" fill="none" stroke="#1f191a" stroke-linecap="square" stroke-width="0.3"/><line y1="65.45" x2="72" y2="65.45" fill="none" stroke="#1f191a" stroke-linecap="square" stroke-width="0.3"/><line y1="63.75" x2="72" y2="63.75" fill="none" stroke="#1f191a" stroke-linecap="square" stroke-width="0.3"/><line y1="62.05" x2="72" y2="62.05" fill="none" stroke="#1f191a" stroke-linecap="square" stroke-width="0.3"/><line y1="60.35" x2="72" y2="60.35" fill="none" stroke="#1f191a" stroke-linecap="square" stroke-width="0.3"/><line y1="58.65" x2="72" y2="58.65" fill="none" stroke="#1f191a" stroke-linecap="square" stroke-width="0.3"/><line y1="56.95" x2="72" y2="56.95" fill="none" stroke="#1f191a" stroke-linecap="square" stroke-width="0.3"/><line y1="55.25" x2="72" y2="55.25" fill="none" stroke="#1f191a" stroke-linecap="square" stroke-width="0.3"/><line y1="53.55" x2="72" y2="53.55" fill="none" stroke="#1f191a" stroke-linecap="square" stroke-width="0.3"/><line y1="51.85" x2="72" y2="51.85" fill="none" stroke="#1f191a" stroke-linecap="square" stroke-width="0.3"/><line y1="50.15" x2="72" y2="50.15" fill="none" stroke="#1f191a" stroke-linecap="square" stroke-width="0.3"/><line y1="48.45" x2="72" y2="48.45" fill="none" stroke="#1f191a" stroke-linecap="square" stroke-width="0.3"/><line y1="46.75" x2="72" y2="46.75" fill="none" stroke="#1f191a" stroke-linecap="square" stroke-width="0.3"/><line y1="45.05" x2="72" y2="45.05" fill="none" stroke="#1f191a" stroke-linecap="square" stroke-width="0.3"/><line y1="43.35" x2="72" y2="43.35" fill="none" stroke="#1f191a" stroke-linecap="square" stroke-width="0.3"/><line y1="41.65" x2="72" y2="41.65" fill="none" stroke="#1f191a" stroke-linecap="square" stroke-width="0.3"/><line y1="39.95" x2="72" y2="39.95" fill="none" stroke="#1f191a" stroke-linecap="square" stroke-width="0.3"/><line y1="38.25" x2="72" y2="38.25" fill="none" stroke="#1f191a" stroke-linecap="square" stroke-width="0.3"/><line y1="36.55" x2="72" y2="36.55" fill="none" stroke="#1f191a" stroke-linecap="square" stroke-width="0.3"/><line y1="34.85" x2="72" y2="34.85" fill="none" stroke="#1f191a" stroke-linecap="square" stroke-width="0.3"/><line y1="33.15" x2="72" y2="33.15" fill="none" stroke="#1f191a" stroke-linecap="square" stroke-width="0.3"/><line y1="31.45" x2="72" y2="31.45" fill="none" stroke="#1f191a" stroke-linecap="square" stroke-width="0.3"/><line y1="29.75" x2="72" y2="29.75" fill="none" stroke="#1f191a" stroke-linecap="square" stroke-width="0.3"/><line y1="28.05" x2="72" y2="28.05" fill="none" stroke="#1f191a" stroke-linecap="square" stroke-width="0.3"/><line y1="26.35" x2="72" y2="26.35" fill="none" stroke="#1f191a" stroke-linecap="square" stroke-width="0.3"/><line y1="24.65" x2="72" y2="24.65" fill="none" stroke="#1f191a" stroke-linecap="square" stroke-width="0.3"/><line y1="22.95" x2="72" y2="22.95" fill="none" stroke="#1f191a" stroke-linecap="square" stroke-width="0.3"/><line y1="21.25" x2="72" y2="21.25" fill="none" stroke="#1f191a" stroke-linecap="square" stroke-width="0.3"/><line y1="19.55" x2="72" y2="19.55" fill="none" stroke="#1f191a" stroke-linecap="square" stroke-width="0.3"/><line y1="17.85" x2="72" y2="17.85" fill="none" stroke="#1f191a" stroke-linecap="square" stroke-width="0.3"/><line y1="16.15" x2="72" y2="16.15" fill="none" stroke="#1f191a" stroke-linecap="square" stroke-width="0.3"/><line y1="14.45" x2="72" y2="14.45" fill="none" stroke="#1f191a" stroke-linecap="square" stroke-width="0.3"/><line y1="12.75" x2="72" y2="12.75" fill="none" stroke="#1f191a" stroke-linecap="square" stroke-width="0.3"/><line y1="11.05" x2="72" y2="11.05" fill="none" stroke="#1f191a" stroke-linecap="square" stroke-width="0.3"/><line y1="9.35" x2="72" y2="9.35" fill="none" stroke="#1f191a" stroke-linecap="square" stroke-width="0.3"/><line y1="7.65" x2="72" y2="7.65" fill="none" stroke="#1f191a" stroke-linecap="square" stroke-width="0.3"/><line y1="5.95" x2="72" y2="5.95" fill="none" stroke="#1f191a" stroke-linecap="square" stroke-width="0.3"/><line y1="4.25" x2="72" y2="4.25" fill="none" stroke="#1f191a" stroke-linecap="square" stroke-width="0.3"/><line y1="2.55" x2="72" y2="2.55" fill="none" stroke="#1f191a" stroke-linecap="square" stroke-width="0.3"/><line y1="0.85" x2="72" y2="0.85" fill="none" stroke="#1f191a" stroke-linecap="square" stroke-width="0.3"/><line x1="-21.5" y1="7.65" x2="-10.25" y2="7.65" fill="none" stroke="#1f191a" stroke-linecap="square" stroke-width="0.3"/></pattern></defs><title>ringing-wifi-telephone-other</title><path d="M511.34,281.2c0,126.26-102.14,228.08-227.94,228.08S55.64,407.46,55.64,281.2c0-125.74,101.82-227.71,227.76-227.71S511.34,155.46,511.34,281.2Z" fill="url(#USGS_8_Sewage_Disposal)"/><path d="M494.42,264.28c0,126.26-102.14,228.08-227.94,228.08S38.73,390.53,38.73,264.28c0-125.74,101.82-227.71,227.76-227.71S494.42,138.53,494.42,264.28Z" fill="url(#USGS_8_Sewage_Disposal)"/><path d="M469,245.23c0,126.26-102.14,228.08-227.94,228.08S13.35,371.49,13.35,245.23c0-125.74,101.82-227.71,227.76-227.71S469,119.49,469,245.23Z" fill="#1f191a"/><path d="M462.7,234.66c0,126.26-102.14,228.08-227.94,228.08S7,360.91,7,234.66C7,108.91,108.83,6.95,234.77,6.95S462.7,108.91,462.7,234.66Z" fill="#333"/><path d="M469,245.23c0,126.26-102.14,228.08-227.94,228.08S13.35,371.49,13.35,245.23c0-125.74,101.82-227.71,227.76-227.71S469,119.49,469,245.23Z" fill="none" stroke="#1f191a" stroke-width="2.12"/><path d="M458.47,232.54c0,126.26-102.14,228.08-227.94,228.08S2.78,358.8,2.78,232.54C2.78,106.8,104.6,4.83,230.54,4.83S458.47,106.8,458.47,232.54Z" fill="#fff"/><path d="M458.47,232.54c0,126.26-102.14,228.08-227.94,228.08S2.78,358.8,2.78,232.54C2.78,106.8,104.6,4.83,230.54,4.83S458.47,106.8,458.47,232.54Z" fill="#fff"/><path d="M458.47,232.54c0,126.26-102.14,228.08-227.94,228.08S2.78,358.8,2.78,232.54C2.78,106.8,104.6,4.83,230.54,4.83S458.47,106.8,458.47,232.54Z" fill="none" stroke="#1f191a" stroke-width="4.23"/><path d="M296,353.28A89.55,89.55,0,0,1,269.71,349c-57.82-16.78-101.13-52.73-136.19-100.45C120.25,230.41,108.24,212,104,189.7q-7-40.19,23-67.89c6.27-5.89,25.55-8.39,33.3-4.63,2.76,1.26,4.63,3.63,6,6.76,7.25,17.16,14.39,34.45,21.53,51.61,1.5,3.26.74,6.63-.76,10-3.63,7.89-9.51,14.16-15.65,20.92-4.38,4.51-4.63,8.77-1.24,14.28,20.52,34,48.68,58.74,85.48,73.53,5.77,2.37,9.9,1.5,13.52-3,6.25-7.63,12.77-15.28,18.52-23.16,4-5.39,8.52-6.14,14.15-3.64,12.39,5.39,24.4,11.27,36.67,17.16,2.76,1.26,5.38,2.39,8.14,3.64,12.39,6.39,12.14,6.39,11.14,20.16-2,26.42-22,40-45.81,46.21C306.76,353.28,301.51,353.28,296,353.28Z" fill="#060606" fill-rule="evenodd"/><path d="M319,147c9.64,8.27,16.52,19.29,22.28,30.94a131.37,131.37,0,0,1,9,29.44c.13,2,1,4.14-.87,6.27-5.64.5-11.14.5-16.65.87-2,.37-2.76,0-3-2.13a86.92,86.92,0,0,0-23.53-49.85c-19-20.66-42.94-30.68-71.1-29.94h-3.26c-.5-5.76-.5-12-.76-18.41,1.26-2,3.38-2,5.27-2a118.78,118.78,0,0,1,34,4.51,118.52,118.52,0,0,1,26,11.77,39.35,39.35,0,0,1,6.75,5.13c2,1.63,5.51,4.51,7.4,6.27A87.05,87.05,0,0,1,319,147Z" fill="#060606" fill-rule="evenodd"/><path d="M291.74,162.52c15.39,13.4,24.79,30.19,27.92,50.23.37,2.51-.26,3.39-2.63,3.39a84.72,84.72,0,0,0-14.78,1.37c-1.5,0-2.13-.5-2.24-2.24-2.51-17.66-11.39-31.45-25.79-41.47a58.85,58.85,0,0,0-36.06-10.89c-2.24,0-2.76-.38-3-2.51a119.44,119.44,0,0,0-1.26-15c0-1.74.5-2.13,2-2.13C256.94,142.36,275.46,149.12,291.74,162.52Z" fill="#060606" fill-rule="evenodd"/><path d="M271,219.89c-2.26-16.4-14.52-27.68-30.79-28.06-1.63,0-2.26,0-2.26-1.74-.38-4.89-.76-10-1.5-15.16,0-1.5.24-2,1.74-2,24.29-1.76,49.19,19.29,51.82,43.71,0,1.63-.5,1.63-1.74,1.63C282.6,218.64,277.09,219.52,271,219.89Z" fill="#060606" fill-rule="evenodd"/></svg>