<svg xmlns="http://www.w3.org/2000/svg" width="96" height="96" fill="none" viewBox="0 0 96 96" id="table"><path fill="url(#paint0_linear_1093_6897)" fill-rule="evenodd" d="M75 83.5C79.6944 83.5 83.5 79.6944 83.5 75L83.5 34.5H34.5L34.5 83.5L75 83.5ZM34.5 29.5V12.5L75 12.5C79.6944 12.5 83.5 16.3056 83.5 21V29.5H34.5ZM29.5 29.5H12.5L12.5 21C12.5 16.3056 16.3056 12.5 21 12.5L29.5 12.5V29.5ZM12.5 34.5H29.5L29.5 83.5H21C16.3056 83.5 12.5 79.6944 12.5 75L12.5 34.5ZM88.5 75C88.5 82.4558 82.4558 88.5 75 88.5L21 88.5C13.5442 88.5 7.50001 82.4559 7.50001 75L7.5 21C7.5 13.5442 13.5442 7.50001 21 7.50001L75 7.5C82.4558 7.5 88.5 13.5442 88.5 21L88.5 75Z" clip-rule="evenodd"></path><defs><linearGradient id="paint0_linear_1093_6897" x1="48" x2="48" y1="7.5" y2="88.5" gradientUnits="userSpaceOnUse"><stop stop-color="#FF1F00"></stop><stop offset="1" stop-color="#FF8A00"></stop></linearGradient></defs></svg>