<svg xmlns="http://www.w3.org/2000/svg" width="96" height="96" fill="none" viewBox="0 0 96 96" id="container"><path fill="url(#paint0_linear_1208_3381)" fill-rule="evenodd" d="M43.8044 6.50611C46.4065 5.02922 49.5935 5.02921 52.1956 6.50611L83.1956 24.1007C85.8561 25.6107 87.5 28.4339 87.5 31.493V64.0058C87.5 67.0649 85.8561 69.8881 83.1956 71.3981L52.1956 88.9927C49.5935 90.4696 46.4065 90.4696 43.8044 88.9927L12.8044 71.3981C10.1439 69.8881 8.5 67.0649 8.5 64.0058V31.493C8.5 28.4339 10.1439 25.6107 12.8044 24.1007L43.8044 6.50611ZM49.7276 10.8545C48.6562 10.2464 47.3438 10.2464 46.2724 10.8545L16.0648 27.9994L48 46.1248L79.9352 27.9994L49.7276 10.8545ZM82.5 32.2929L50.5 50.4551V84.2059L80.7276 67.0497C81.8231 66.4279 82.5 65.2654 82.5 64.0058V32.2929ZM45.5 84.2059V50.4551L13.5 32.2929V64.0058C13.5 65.2654 14.1769 66.4279 15.2724 67.0497L45.5 84.2059Z" clip-rule="evenodd"></path><defs><linearGradient id="paint0_linear_1208_3381" x1="48" x2="48" y1="5.398" y2="90.1" gradientUnits="userSpaceOnUse"><stop stop-color="#FF1F00"></stop><stop offset="1" stop-color="#FF8A00"></stop></linearGradient></defs></svg>