<?xml version="1.0" encoding="iso-8859-1"?>
<!-- Uploaded to: SVG Repo, www.svgrepo.com, Generator: SVG Repo Mixer Tools -->
<svg version="1.1" id="Layer_1" xmlns="http://www.w3.org/2000/svg" xmlns:xlink="http://www.w3.org/1999/xlink" 
	 viewBox="0 0 495.748 495.748" xml:space="preserve">
<rect x="201.903" y="38.736" transform="matrix(-0.7071 -0.7071 0.7071 -0.7071 363.2277 319.8479)" style="fill:#E4E892;" width="91.907" height="91.923"/>
<path style="fill:#FF9100;" d="M247.87,169.399c-5.23,0-10.232-2.08-13.926-5.766l-65-65.016c-3.694-3.694-5.766-8.696-5.766-13.926
	c0-5.23,2.08-10.232,5.766-13.926l65.008-64.993c7.696-7.696,20.149-7.696,27.845,0l65,64.985c3.694,3.694,5.758,8.696,5.758,13.926
	c0,5.23-2.072,10.232-5.758,13.926l-65.008,65.024C258.102,167.32,253.085,169.399,247.87,169.399z M210.715,84.691l37.155,37.163
	l37.163-37.171l-37.155-37.14L210.715,84.691z"/>
<rect x="201.908" y="365.138" transform="matrix(0.7072 0.707 -0.707 0.7072 363.2178 -54.8774)" style="fill:#E4E892;" width="91.915" height="91.907"/>
<path style="fill:#FF9100;" d="M247.878,495.748c-5.041,0-10.082-1.922-13.926-5.766l-65-64.985
	c-7.704-7.688-7.704-20.157-0.008-27.845l65-65.024c7.396-7.389,20.464-7.389,27.861,0l65,65.024
	c7.688,7.696,7.688,20.165-0.008,27.845l-65,64.985C257.952,493.826,252.919,495.748,247.878,495.748z M210.722,411.063
	l37.155,37.148l37.155-37.148L247.878,373.9L210.722,411.063z"/>
<polygon style="fill:#E4E892;" points="411.072,312.877 476.057,247.877 411.072,182.877 346.04,247.877 "/>
<path style="fill:#FF9100;" d="M411.072,332.57c-5.049,0-10.075-1.922-13.926-5.758l-65.024-65
	c-3.694-3.702-5.774-8.704-5.774-13.934c0-5.23,2.087-10.232,5.774-13.934l65.024-65c7.696-7.68,20.157-7.688,27.845,0.008
	l64.985,65c7.696,7.696,7.696,20.157,0,27.845l-64.985,65C421.154,330.648,416.097,332.57,411.072,332.57z M373.901,247.877
	l37.163,37.155l37.148-37.155l-37.148-37.155L373.901,247.877z"/>
<polygon style="fill:#E4E892;" points="284.072,211.675 284.072,284.071 309.83,284.071 346.04,247.877 309.846,211.675 "/>
<path style="fill:#FF9100;" d="M309.83,303.764h-25.765c-10.87,0-19.692-8.814-19.692-19.692v-72.389
	c0-10.878,8.822-19.692,19.692-19.692h25.773c5.222,0,10.232,2.079,13.926,5.766l36.202,36.202
	c3.694,3.694,5.758,8.696,5.758,13.926c0,5.23-2.072,10.24-5.758,13.934l-36.226,36.194
	C320.054,301.692,315.052,303.764,309.83,303.764z M303.765,233.446v28.837l14.431-14.415L303.765,233.446z"/>
<rect x="38.739" y="201.918" transform="matrix(-0.7071 0.7071 -0.7071 -0.7071 319.8628 363.2678)" style="fill:#E4E892;" width="91.915" height="91.923"/>
<path style="fill:#FF9100;" d="M84.692,332.577L84.692,332.577c-5.222,0-10.232-2.079-13.919-5.766l-65-65.008
	c-7.696-7.696-7.696-20.165,0-27.845l65-64.992c7.688-7.696,20.141-7.696,27.837,0l65.008,65c3.694,3.694,5.774,8.696,5.774,13.926
	c0,5.23-2.087,10.232-5.774,13.926l-65.008,65C94.924,330.498,89.914,332.577,84.692,332.577z M47.544,247.877l37.148,37.163
	l37.163-37.155l-37.163-37.155L47.544,247.877z"/>
<polygon style="fill:#E4E892;" points="185.926,211.675 149.708,247.885 185.91,284.071 211.683,284.071 211.683,211.675 "/>
<path style="fill:#FF9100;" d="M211.683,303.764H185.91c-5.222,0-10.232-2.08-13.926-5.758l-36.21-36.187
	c-3.679-3.702-5.758-8.704-5.758-13.934c0-5.23,2.087-10.232,5.758-13.926l36.218-36.21c3.694-3.694,8.704-5.766,13.934-5.766
	h25.765c10.878,0,19.692,8.814,19.692,19.692v72.389C231.376,294.949,222.561,303.764,211.683,303.764z M177.561,247.885
	l14.431,14.423v-28.853L177.561,247.885z"/>
<polygon style="fill:#5BF486;" points="284.072,185.925 247.87,149.707 211.683,185.909 211.683,211.675 284.072,211.675 "/>
<path style="fill:#FF9100;" d="M284.072,231.367h-72.381c-10.878,0-19.692-8.814-19.692-19.692v-25.765
	c0-5.222,2.079-10.232,5.75-13.926l36.194-36.202c7.396-7.389,20.472-7.389,27.853,0l36.21,36.218
	c3.694,3.694,5.758,8.696,5.758,13.926v25.758C303.765,222.553,294.95,231.367,284.072,231.367z M233.455,191.982h28.83
	L247.87,177.56L233.455,191.982z"/>
<polygon style="fill:#5BF486;" points="211.683,309.829 247.878,346.047 284.072,309.845 284.072,284.071 211.683,284.071 "/>
<path style="fill:#FF9100;" d="M247.878,365.739L247.878,365.739c-5.238,0-10.24-2.079-13.934-5.766l-36.202-36.218
	c-3.679-3.694-5.75-8.696-5.75-13.926v-25.765c0-10.878,8.814-19.692,19.692-19.692h72.381c10.878,0,19.692,8.814,19.692,19.692
	v25.773c0,5.222-2.072,10.232-5.758,13.926l-36.202,36.202C258.11,363.66,253.1,365.739,247.878,365.739z M233.463,303.764
	l14.423,14.431l14.431-14.431H233.463z"/>
<rect x="211.683" y="211.675" style="fill:#5BF486;" width="72.381" height="72.389"/>
</svg>