<svg xmlns="http://www.w3.org/2000/svg" xmlns:xlink="http://www.w3.org/1999/xlink" viewBox="0 0 64 64" id="web-hosting"><defs><linearGradient id="a" x1="12.082" x2="55.601" y1="64.436" y2="5.736" gradientUnits="userSpaceOnUse"><stop offset="0" stop-color="#fff200"></stop><stop offset="1" stop-color="#cd118c"></stop></linearGradient><linearGradient id="b" x1="-1.153" x2="42.366" y1="54.624" y2="-4.075" xlink:href="#a"></linearGradient><linearGradient id="c" x1="4.588" x2="48.107" y1="58.881" y2=".181" xlink:href="#a"></linearGradient><linearGradient id="d" x1="2.719" x2="46.238" y1="57.495" y2="-1.205" xlink:href="#a"></linearGradient><linearGradient id="e" x1="8.46" x2="51.979" y1="61.751" y2="3.051" xlink:href="#a"></linearGradient><linearGradient id="f" x1="6.591" x2="50.11" y1="60.365" y2="1.666" xlink:href="#a"></linearGradient><linearGradient id="g" x1="12.332" x2="55.851" y1="64.622" y2="5.922" xlink:href="#a"></linearGradient><linearGradient id="h" x1="-13.347" x2="30.172" y1="45.584" y2="-13.116" xlink:href="#a"></linearGradient><linearGradient id="i" x1="-10.765" x2="32.753" y1="47.498" y2="-11.202" xlink:href="#a"></linearGradient><linearGradient id="j" x1="-8.184" x2="35.335" y1="49.411" y2="-9.289" xlink:href="#a"></linearGradient></defs><path fill="url(#a)" d="M59,49H54V48a3,3,0,0,0-3-3H41a1,1,0,0,0-1,1v7H36V40H50a3,3,0,0,0,3-3V5a3,3,0,0,0-3-3H14a3,3,0,0,0-3,3V37a3,3,0,0,0,3,3H28V53H24V52a3,3,0,0,0-3-3H16V48a3,3,0,0,0-3-3H3a1,1,0,0,0-1,1V58a3,3,0,0,0,3,3H21a3,3,0,0,0,3-3V55h5a1,1,0,0,0,1-1V40h4V54a1,1,0,0,0,1,1h5v3a3,3,0,0,0,3,3H59a3,3,0,0,0,3-3V52A3,3,0,0,0,59,49ZM4,47h9a1,1,0,0,1,1,1v1H4ZM22,58a1,1,0,0,1-1,1H5a1,1,0,0,1-1-1V51H21a1,1,0,0,1,1,1ZM14,4H50a1,1,0,0,1,1,1V8H13V5A1,1,0,0,1,14,4Zm0,34a1,1,0,0,1-1-1V10H51V37a1,1,0,0,1-1,1H36V35h5a3,3,0,0,0,3-3V28a3,3,0,0,0-3-3V23a3,3,0,0,0,3-3V16a3,3,0,0,0-3-3H23a3,3,0,0,0-3,3v4a3,3,0,0,0,3,3v2a3,3,0,0,0-3,3v4a3,3,0,0,0,3,3h5v3Zm9-5a1,1,0,0,1-1-1V28a1,1,0,0,1,1-1H41a1,1,0,0,1,1,1v4a1,1,0,0,1-1,1Zm0-12a1,1,0,0,1-1-1V16a1,1,0,0,1,1-1H41a1,1,0,0,1,1,1v4a1,1,0,0,1-1,1Zm2,2H39v2H25Zm5,15V35h4v3Zm12,9h9a1,1,0,0,1,1,1v1H42ZM60,58a1,1,0,0,1-1,1H43a1,1,0,0,1-1-1V51H59a1,1,0,0,1,1,1Z"></path><circle cx="26" cy="18" r="2" fill="url(#b)"></circle><circle cx="26" cy="30" r="2" fill="url(#c)"></circle><circle cx="32" cy="18" r="2" fill="url(#d)"></circle><circle cx="32" cy="30" r="2" fill="url(#e)"></circle><circle cx="38" cy="18" r="2" fill="url(#f)"></circle><circle cx="38" cy="30" r="2" fill="url(#g)"></circle><rect width="2" height="2" x="15" y="5" fill="url(#h)"></rect><rect width="2" height="2" x="19" y="5" fill="url(#i)"></rect><rect width="2" height="2" x="23" y="5" fill="url(#j)"></rect></svg>