<svg xmlns="http://www.w3.org/2000/svg" xmlns:xlink="http://www.w3.org/1999/xlink" width="32" height="32" id="web"><defs><linearGradient id="a"><stop offset="0" stop-color="#000092"></stop><stop offset="1" stop-color="#ff00f3"></stop></linearGradient><linearGradient id="b" x1="2" x2="27" y1="16" y2="16" gradientUnits="userSpaceOnUse" xlink:href="#a"></linearGradient></defs><path style="line-height:normal;text-indent:0;text-align:start;text-decoration-line:none;text-decoration-style:solid;text-decoration-color:#000;text-transform:none;block-progression:tb;isolation:auto;mix-blend-mode:normal" fill="url(#b)" d="m15.975 2.002-.8.037.052 1L16 3l.174.01.05-.998-.199-.01h-.05zm2.289.195-.15.989.505.078.424.107.25-.967-.447-.115-.05-.01-.532-.082zm-5.17.108-.969.248.25.968.969-.248-.25-.968zm8.15.718-.344.938.157.059.707.34.433-.901-.724-.35-.047-.02-.182-.066zm-11.082.262-.814.393-.043.023-.082.049.52.855.062-.039.79-.38-.433-.9zM16 4a.5.5 0 0 0-.5.5v11.21l-9.709 5.606a.5.5 0 0 0-.217.252.5.5 0 0 0-.006.018.5.5 0 0 0-.002.006.5.5 0 0 0-.01.035.5.5 0 0 0-.013.076.5.5 0 0 0-.002.024.5.5 0 0 0 0 .013.5.5 0 0 0 .006.09.5.5 0 0 0 .006.03.5.5 0 0 0 .006.023.5.5 0 0 0 .002.006.5.5 0 0 0 .011.035.5.5 0 0 0 .018.039.5.5 0 0 0 .004.01.5.5 0 0 0 .004.007.5.5 0 0 0 .01.018.5.5 0 0 0 0 .002c.184.32.386.626.597.924.065.092.134.181.201.271.156.208.319.41.487.606.07.082.139.164.21.244.237.261.48.516.737.754.037.034.076.064.113.097.226.205.46.399.7.584a12.01 12.01 0 0 0 .898.629c.085.054.168.11.254.162.302.183.612.353.93.508l.001.002.01.004c.319.155.645.293.977.42.06.023.122.044.183.066.29.106.582.199.88.282l.171.049c.7.183 1.417.304 2.147.359.06.005.122.006.183.01.296.017.592.024.89.02.084-.002.166-.002.249-.005.315-.01.632-.033.949-.07.045-.005.09-.006.135-.012l.056-.006c.334-.043.66-.105.985-.175.108-.024.216-.054.324-.08a11.984 11.984 0 0 0 1.896-.64c.056-.023.112-.043.166-.067.339-.153.666-.324.987-.506.025-.015.051-.025.076-.04a.5.5 0 0 0 .057-.04 12.006 12.006 0 0 0 4.287-4.28.5.5 0 0 0 .002-.004.5.5 0 0 0 .047-.066c.034-.06.064-.121.097-.182a11.956 11.956 0 0 0 .56-1.148c.07-.162.131-.325.192-.488.032-.087.068-.172.098-.26.07-.201.129-.406.187-.61.02-.069.046-.135.065-.205a.5.5 0 0 0 .006-.027l.006-.021a.5.5 0 0 0 0-.008A11.999 11.999 0 0 0 16 4zm-2.246.219a.5.5 0 0 0-.014.002.5.5 0 0 0-.084.011 12 12 0 0 0-9.035 15.579.5.5 0 1 0 .947-.317 11 11 0 0 1 8.284-14.281.5.5 0 0 0-.098-.994zm10.248.3-.6.801.801.598.6-.8-.801-.598zm-16.484.36-.405.303-.037.029-.367.334.674.74.346-.314.386-.291-.597-.801zm8.982.187c3.732.174 7.146 2.178 9.025 5.434 1.88 3.256 1.909 7.216.192 10.535L16.5 15.713V5.066zm9.818 1.495-.74.671.461.506.008.01.152.205.801-.598-.182-.244-.03-.037-.47-.513zm-21.04.443-.065.07-.031.037-.541.725.8.6.512-.688.008-.01.057-.06-.74-.674zM28.144 9.05l-.856.52.137.224.3.62.901-.435-.307-.634-.021-.041-.154-.254zm-24.598.57-.434.9.9.436.434-.902-.9-.434zm25.85 2.309-.97.25.249.968.969-.25-.249-.968zm-26.942.582-.164.64-.012.051-.05.334.988.15.05-.324.003-.01.154-.591-.969-.25zm27.463 1.84-.998.046.047.975h.502l.5-.023-.051-.998zM2.021 15.574 2 15.973v.05l.031.6.998-.05-.027-.575.018-.373-.999-.05zm26.977.783-.037.774.998.05.041-.798-.5-.026h-.502zm-13.182.327 5.2 9.005a10.883 10.883 0 0 1-14.203-3.806l9.003-5.2zm1.553.685 7.895 4.557c-.86 1.345-2 2.485-3.336 3.34l-4.559-7.897zM3.248 18.506l-.988.152.02.137.011.049.213.836.969-.25-.203-.785-.002-.01-.02-.13zm25.479.148-.25.969.968.25.25-.969-.968-.25zM4.102 21.223l-.903.433.436.9.9-.433-.433-.9zm23.71.18-.382.794-.035.059.853.52.05-.083.022-.043.393-.814-.9-.434zm-22.25 2.32-.802.597.422.565.03.037.2.219.74-.672-.19-.21-.009-.009-.39-.527zm20.756.16-.271.367-.01.01-.322.355.74.674.332-.367.031-.037.301-.405-.8-.597zM7.531 25.848l-.674.74.22.197.036.031.565.422.6-.8-.528-.393-.01-.01-.209-.187zm16.791.136-.049.041-.709.532.598.8.725-.54.037-.032.07-.062-.672-.739zm-14.445 1.48-.434.901.9.434.434-.9-.9-.434zm12.066.087-.9.433.434.9.9-.433-.434-.9zm-9.375.974-.248.97.834.214.05.01.136.021.152-.99-.113-.016-.81-.209zm6.67.05-.62.16-.307.046.152.989.334-.051.049-.01.64-.166-.248-.969zm-3.812.394-.051.998.6.031h.05l.4-.02-.05-1-.375.02-.574-.03z" color="#000" font-family="sans-serif" font-weight="400" overflow="visible"></path></svg>